{
	"accessors": [
		{
			"bufferView": 0,
			"componentType": 5126,
			"count": 144,
			"max": [
				0.6299999952316284,
				2.2300000190734863,
				0.12000003457069397
			],
			"min": [
				-0.6299999952316284,
				0.0,
				-0.12000003457069397
			],
			"type": "VEC3"
		},
		{
			"bufferView": 1,
			"componentType": 5126,
			"count": 144,
			"type": "VEC3"
		},
		{
			"bufferView": 2,
			"componentType": 5126,
			"count": 144,
			"type": "VEC2"
		},
		{
			"bufferView": 3,
			"componentType": 5126,
			"count": 144,
			"type": "VEC4"
		},
		{
			"bufferView": 4,
			"componentType": 5123,
			"count": 288,
			"type": "SCALAR"
		}
	],
	"asset": {
		"generator": "Ultra Engine glTF Exporter",
		"version": "2.0"
	},
	"bufferViews": [
		{
			"buffer": 0,
			"byteLength": 1728,
			"byteOffset": 0
		},
		{
			"buffer": 0,
			"byteLength": 1728,
			"byteOffset": 1728
		},
		{
			"buffer": 0,
			"byteLength": 1152,
			"byteOffset": 3456
		},
		{
			"buffer": 0,
			"byteLength": 2304,
			"byteOffset": 4608
		},
		{
			"buffer": 0,
			"byteLength": 576,
			"byteOffset": 6912
		}
	],
	"buffers": [
		{
			"byteLength": 7488,
			"uri": "slidingdoor01.bin"
		}
	],
	"extensionsUsed": [
		"MSFT_texture_dds"
	],
	"images": [
		{
			"uri": "slidingdoor01.png"
		},
		{
			"uri": "slidingdoor01.dds"
		},
		{
			"uri": "slidingdoor01_normal.png"
		},
		{
			"uri": "slidingdoor01_normal.dds"
		},
		{
			"uri": "slidingdoor01_metal-slidingdoor01_roughness.png"
		},
		{
			"uri": "slidingdoor01_metal-slidingdoor01_roughness.dds"
		},
		{
			"uri": "slidingdoor01_emisson.png"
		},
		{
			"uri": "slidingdoor01_emisson.dds"
		}
	],
	"materials": [
		{
			"alphaMode": "OPAQUE",
			"doubleSided": false,
			"emissiveFactor": [
				1.0,
				1.0,
				1.0
			],
			"emissiveTexture": {
				"index": 3
			},
			"extras": {
				"ultra": {
					"displacement": [
						0.10000000149011612,
						0.0
					],
					"shaderfamily": "Shaders/PBR.fam",
					"shadow": true
				}
			},
			"name": "SlidingDoor01",
			"normalTexture": {
				"index": 1
			},
			"pbrMetallicRoughness": {
				"baseColorTexture": {
					"index": 0
				},
				"metallicFactor": 1.0,
				"metallicRoughnessTexture": {
					"index": 2
				},
				"roughnessFactor": 1.0
			}
		}
	],
	"meshes": [
		{
			"name": "SlidingDoor01",
			"primitives": [
				{
					"attributes": {
						"NORMAL": 1,
						"POSITION": 0,
						"TANGENT": 3,
						"TEXCOORD_0": 2
					},
					"indices": 4,
					"material": 0,
					"mode": 4
				}
			]
		}
	],
	"nodes": [
		{
			"extras": {
				"ultra": {
					"collisiontype": 1,
					"physicsmode": 1
				}
			},
			"mesh": 0,
			"name": "SlidingDoor01"
		}
	],
	"scene": 0,
	"scenes": [
		{
			"nodes": [
				0
			]
		}
	],
	"textures": [
		{
			"extensions": {
				"MSFT_texture_dds": {
					"source": 1
				}
			},
			"source": 0
		},
		{
			"extensions": {
				"MSFT_texture_dds": {
					"source": 3
				}
			},
			"source": 2
		},
		{
			"extensions": {
				"MSFT_texture_dds": {
					"source": 5
				}
			},
			"source": 4
		},
		{
			"extensions": {
				"MSFT_texture_dds": {
					"source": 7
				}
			},
			"source": 6
		}
	]
}